<?xml version="1.0" encoding="utf-8"?>
<!-- Svg Vector Icons : http://www.onlinewebfonts.com/icon -->
<!DOCTYPE svg PUBLIC "-//W3C//DTD SVG 1.1//EN" "http://www.w3.org/Graphics/SVG/1.1/DTD/svg11.dtd">
<svg version="1.1" xmlns="http://www.w3.org/2000/svg" xmlns:xlink="http://www.w3.org/1999/xlink" x="0px" y="0px" viewBox="0 0 256 256" enable-background="new 0 0 256 256" xml:space="preserve">
<metadata> Svg Vector Icons : http://www.onlinewebfonts.com/icon </metadata>
<g><g><g><path fill="#000000" d="M105.4,10.5c-28,2.7-55.2,16.4-73.8,37.3c-2.3,2.5-4.5,5.5-5,6.5c-2.3,5.1,0.5,11.3,5.8,12.8c4.3,1.2,6.2,0.3,12.6-6C58.1,48.6,64.2,44,74.9,38.8c7.5-3.6,14.5-6.1,22.6-7.8c8.1-1.7,23-2.1,31.6-1c20.9,3,39.2,12,54.1,26.9c30.8,30.7,36.7,78.5,14.4,115.8c-5.2,8.6-13.6,18.4-21.5,24.8c-3.8,3.1-11.4,8.2-14.8,10l-2.3,1.1l-0.3-2.7c-0.5-4.4-3-13.9-4.8-18.5c-3.1-8.2-7.7-16.3-16.4-29.4c-1.8-2.6-3.2-4.9-3.2-5.1c0-0.2,1.2-0.8,2.7-1.5c7.2-2.9,14.6-9.6,17.8-16c2.4-4.9,3-8,2.5-13.8c-0.4-6.2-0.4-7.7,0-16.2c0.4-8.1-0.3-14-2.7-22.7c-1.4-5-5.4-15.4-6.3-16.3c-0.5-0.5-6.8,5.9-10.2,10.3c-2.8,3.7-7.1,11.9-7.6,14.4c-0.3,1.7-0.4,1.7-2.1,1.5c-5.4-0.9-14.6-0.8-19.5,0.3c-0.2,0-0.8-1.1-1.3-2.6c-2.1-6.6-7.3-14.4-13.7-20.7l-3.6-3.5l-1.6,3.5c-2.3,5.1-5.1,13.9-6.3,19.5c-1.4,6.4-1.7,17.1-0.9,22.1c0.5,3,0.6,4.1,0,6.1c-0.8,3.2-0.8,9.1,0.1,12.6c1.4,5.3,3.5,8.9,8.2,13.6c3.9,3.9,5,4.7,9.4,6.8c2.7,1.3,4.9,2.5,4.9,2.7c0,0.2-2.4,4-5.4,8.5c-9,13.6-12.9,21.4-15.9,31c-3,9.8-4.7,21.5-4.2,29.7c0.7,14.3,6,21.5,17,23.3c4.2,0.7,42.3,0.7,46.9,0c8.2-1.2,14.2-6.5,16.1-14.2c0.2-1,0.8-1.6,2.1-2.1c8-3.3,19.5-10.2,26.8-16c20.3-16.3,34.6-39.2,40.2-64.4c3.2-14.6,3.3-34.3,0.2-48.4c-4.9-22-15.1-40.8-31-56.7c-14-14.1-30.8-23.9-49.7-29.3C133.8,10.5,119.1,9.2,105.4,10.5z"/></g></g></g>
</svg>
